<?xml version="1.0" encoding="UTF-8"?>
<svg xmlns="http://www.w3.org/2000/svg" viewBox="0 0 771.42 739.21">
  <defs>
    <style>
      .cls-1 {
        fill: #2e3192;
      }

      .cls-2 {
        fill: #fff;
        stroke: #2e3192;
        stroke-miterlimit: 10;
      }
    </style>
  </defs>
  <g id="Layer_2" data-name="Layer 2">
    <polygon class="cls-2" points="770.92 372.07 770.92 367.11 770.84 367.11 770.84 211.72 770.5 211.72 770.5 191.04 770.39 191.04 770.39 .65 575.49 .65 575.49 .61 355.49 .61 355.49 .5 263.74 .5 263.74 .61 195.5 .61 195.5 .87 .5 .87 .5 187.83 .8 187.83 .8 548.76 .8 548.76 .8 738.71 182.18 738.71 182.18 738.02 614.6 738.02 614.6 738.41 770.68 738.41 770.68 548.42 770.92 548.42 770.92 543.59 770.84 543.59 770.84 372.07 770.92 372.07"/>
  </g>
  <g id="Layer_1" data-name="Layer 1">
    <g>
      <path class="cls-1" d="m124.37,658.08h-34.68v-109.16H20v170.44h175.39v-170.47h-71.02v109.19Z"/>
      <path class="cls-1" d="m525.61,657.96h-92.24v-109.23h-45.01v170.72h182.23v-170.63h-54.62c-.18,2.73-.33,5.12-.51,7.94h-47.69v68.04h57.84v33.16Z"/>
      <path class="cls-1" d="m387.9,19.76c0,2.2,0,4.14,0,6.09.01,15.83.04,31.66.04,47.48-.02,37.49-.05,74.97-.09,112.46,0,3.12-.36,5.89,4.43,5.79,13.99-.29,27.98-.06,41.97-.35,1.5-.03,3.87-1.88,4.27-3.32,1.18-4.29,1.53-8.8,2.28-13.21,4.19-24.85,8.36-49.7,12.62-74.54.77-4.48.49-10.72,3.24-12.83,2.97-2.28,8.93-.72,13.58-.73,10.62-.04,21.24-.01,32.04-.01,2.17,12.47,4.31,24.53,6.35,36.61,3.63,21.42,7.3,42.83,10.69,64.28.53,3.37,1.87,3.94,4.86,3.91,11.49-.15,22.99-.05,34.48-.05,3.95,0,7.9,0,11.94,0V19.76h-182.69Z"/>
      <path class="cls-1" d="m388.21,543.68c13.5,0,26.48-.22,39.45.11,4.9.13,6.09-1.46,6.07-6.17-.17-34.32-.07-68.64-.05-102.96,0-1.74,0-3.49,0-5.48h91.81v32.73h-57.65v61.34h48.08v20.07h54.63v-170.89h-182.33v171.25Z"/>
      <path class="cls-1" d="m89.51,543.51c.15-1.1.32-1.74.32-2.38.04-25.16.01-50.32.14-75.47.02-3.16-1.14-3.95-4.1-3.91-10.27.15-20.55.06-31.04.06v-32.54h104.65v32.53c-10.58,0-20.86.05-31.15-.03-2.71-.02-4.16.24-4.12,3.75.26,24.16.24,48.31.3,72.47,0,1.76,0,3.53,0,5.38h70.88v-170.75H19.92v170.91h69.59Z"/>
      <path class="cls-1" d="m124.78,148.56c0-3.4.12-6.37-.03-9.32-.17-3.14-.56-6.28-.92-9.41-1.07-9.12-7.16-14.85-16.14-15.25-9.2-.41-15.37,4.51-17.17,13.81-2.42,12.53.37,24.22,8.48,33.65,8.53,9.92,18.48,18.62,27.93,27.73.91.88,2.64,1.27,4,1.28,15.83.15,31.65.19,47.48.24,5.61.02,11.23,0,16.98,0V19.91H19.83v171.08h55.95c-.99-1.55-1.55-2.71-2.36-3.66-15.91-18.77-20.72-40.45-16.56-64.33,2.04-11.75,7.03-21.92,16.44-29.83,15.16-12.75,46.75-11.67,60.72-3.95,19.75,10.92,25.33,38.96,22.88,59.35h-32.12Z"/>
      <path class="cls-1" d="m19.77,367.07h175.61v-170.72h-61.11c1.09,1.43,1.62,2.26,2.28,2.97,19.34,20.72,24.65,45.43,19.94,72.61-3.45,19.9-14.64,35.45-37.06,38.87-7.47,1.14-15.27,1.19-22.82.57-11.46-.94-21.44-5.65-28.98-14.7-13.67-16.42-13.63-35.89-12.75-55.56h32.73c0,7.09-.29,13.77.07,20.41.56,10.52,6.94,17.34,16.39,18.15,9.27.8,16.54-4.07,18.42-13.15,2.87-13.89.57-27.28-8.65-38.02-9.39-10.95-20.28-20.62-30.72-30.63-1.33-1.28-3.91-1.73-5.92-1.76-9.49-.18-18.99-.08-28.48-.08-9.59,0-19.17,0-28.94,0v171.05Z"/>
      <path class="cls-1" d="m693.2,196.29c-.08.38-.15.76-.23,1.15.65.44,1.26.98,1.96,1.31,8.86,4.17,13.79,11.57,15.52,20.75,1.68,8.92,2.65,18.04,3.11,27.11,1.06,20.66-2.22,41.57,3.92,61.81-.45.34-.71.68-.96.69-10.65.12-21.31.33-31.95.11-1.24-.03-3.2-2.32-3.5-3.83-1.06-5.35-2.05-10.81-2.14-16.25-.28-15.99-.06-31.99-.19-47.98-.03-3.63-.36-7.33-1.11-10.88-1.64-7.85-5.59-14.2-14.13-15.41-5.65-.8-11.51-.15-17.77-.15v94.27h-34.16v-112.55h-35.69v170.5h175.69v-170.65h-58.38Z"/>
      <path class="cls-1" d="m539.97,309.1h-34.96c-2.07-13.77-4.04-27.37-6.25-40.93-.21-1.31-1.87-3.39-2.88-3.41-12.63-.23-25.27-.15-38.3-.15-2.3,15.04-4.56,29.74-6.8,44.37h-32.67c6.35-37.89,12.63-75.32,18.93-112.92-15.42,0-29.89.17-44.35-.11-4.22-.08-5.18,1.42-4.88,5.18.29,3.64.19,7.32.19,10.99-.04,49.81-.09,99.62-.18,149.43,0,3.37-.28,6.03,4.73,6.01,57.97-.18,115.95-.15,173.92-.19,1.29,0,2.59-.21,4.1-.34v-170.71h-49.7c6.37,37.65,12.67,74.86,19.09,112.79Z"/>
      <path class="cls-1" d="m751.55,191.01V19.84h-175.57v171.03h36.06v-104.14c20.86,0,41.2-.53,61.49.19,12.53.45,23.51,5.63,31.24,16.2,5.49,7.5,7.59,16.22,8.24,25.21,1.03,14.26,2.34,28.7-1.62,42.65-1.97,6.95-5.95,13.33-9.05,20.02h49.21Z"/>
      <path class="cls-1" d="m286.86,548.65c-.62,5.97-1.16,11.42-1.75,16.87-1.47,13.55-3,27.09-4.45,40.63-1.75,16.36-3.38,32.73-5.26,49.08-.13,1.13-1.86,2.97-2.87,2.98-12.47.21-24.95.13-37.48.13-.43-1.41-.95-2.49-1.07-3.62-2.41-21.63-4.79-43.26-7.14-64.9-1.4-12.88-2.69-25.78-4.21-38.64-.12-1-1.73-2.57-2.69-2.61-6.28-.24-12.56-.12-19.15-.12v170.99h182.39v-170.64h-22.44c-4.03,36.58-8.03,72.87-12.02,109.15h-39.91c-4.07-36.64-8.1-72.91-12.15-109.31h-9.79Z"/>
      <path class="cls-1" d="m365.06,191.36c4.93,0,9.24-.28,13.49.08,4.01.34,5.13-1,5.11-4.99-.19-54.14-.23-108.29-.32-162.43,0-1.42-.19-2.83-.29-4.14h-182.26v170.97h17.07v-104.11h49.71c2.38,15.61,4.73,31,7.07,46.4,2.76,18.2,5.45,36.42,8.36,54.6.22,1.36,1.95,3.41,3.14,3.52,4.4.42,8.86.17,13.52.17.9-6.29,1.64-11.7,2.45-17.1,4.2-27.87,8.53-55.73,12.52-83.63.51-3.57,1.73-4.41,4.97-4.28,5.66.23,11.33.14,16.99.15,9.27.02,18.55,0,28.47,0v104.78Z"/>
      <path class="cls-1" d="m707.99,548.67c1.95,4.63,4.37,8.86,5.55,13.42,4.98,19.15,5.08,38.72,1.14,57.84-5.13,24.86-18.76,36.21-43.96,37.63-18.44,1.03-36.97.51-55.46.63-1.09,0-2.19-.38-3.68-.65v-108.71h-35.62v170.61h175.57v-170.75h-43.53Z"/>
      <path class="cls-1" d="m751.65,372.56h-175.74v170.8h35.81v-113.61c.82-.28,1.28-.59,1.74-.58,20.98.19,42-.31,62.93.84,17.65.97,30.54,12.41,34.92,29.38,3.91,15.15,3.6,30.63,1.62,46.06-1.17,9.11-4.34,17.44-11.07,23.95-2.68,2.59-5.88,4.64-9.15,7.18,6.17,3.72,11.36,8.56,19.42,7.27,5.04-.8,10.31-.16,15.47-.16,7.94,0,15.88,0,24.06,0v-171.13Z"/>
      <path class="cls-1" d="m332.68,309.15v-112.3c-8.38-2.08-9.31-1.45-10.04,6.55-.06.66-.09,1.33-.2,1.99-5.28,33.43-10.59,66.85-15.79,100.29-.41,2.64-1.25,3.76-4.05,3.72-7.66-.13-15.33-.1-23,.05-2.71.05-3.81-.89-4.15-3.61-.82-6.59-1.88-13.15-2.96-19.7-4.51-27.5-9.14-54.98-13.55-82.49-1.31-8.18-1.8-8.72-10.34-6.47v111.74h-31v-112.32h-16.84v170.65c2.02.1,3.81.27,5.59.27,56.99-.03,113.99-.16,170.98,0,5.19.01,6.37-1.42,6.34-6.41-.24-49.33-.23-98.65-.29-147.98,0-5.45,0-10.9,0-16.74h-18.46v112.75h-32.27Z"/>
      <path class="cls-1" d="m343.77,429.3h29.93c-4.14,38.27-8.24,76.12-12.35,114.11h21.84v-170.96h-182.29v170.93h20.69c-4.09-38.15-8.14-75.93-12.22-113.93h32.16c3.67,38.27,7.29,76.1,10.95,114.26,1.97,0,3.3-.17,4.58.03,4.56.7,6.09-1.08,5.95-5.71-.13-4.27.9-8.58,1.34-12.87,1.84-17.85,3.66-35.71,5.47-53.57,1.42-14.02,2.82-28.04,4.26-42.39h36.79c.44,5.11.78,9.91,1.26,14.69,1.48,14.72,3.06,29.43,4.49,44.15,1.53,15.72,2.76,31.48,4.48,47.18,1,9.16,1.31,9.13,10.65,8.31.28-.02.53-.36.79-.56,3.74-37.84,7.48-75.69,11.24-113.67Z"/>
      <path class="cls-1" d="m645.66,624.74c6.84,0,13.3.07,19.75-.02,8.8-.11,15.46-4.56,16.05-13.19.94-13.7.71-27.53-.03-41.26-.31-5.74-3.34-11.99-9.69-13.33-8.43-1.78-17.19-2.01-26.07-2.93v70.72Z"/>
      <path class="cls-1" d="m646.03,117.64v65.2c4.85,0,9.46.09,14.07-.02,10.64-.26,16.53-4.42,17.67-14.93,1.23-11.34,1.47-22.93.64-34.3-.75-10.33-6.29-15.23-15.36-15.87-5.45-.39-10.95-.07-17.01-.07Z"/>
      <path class="cls-1" d="m645.79,521.75c6.36,0,12.48.34,18.55-.09,7.76-.55,13.57-5.6,14.31-13.43.94-10.06,1.32-20.25.83-30.34-.44-9.06-4.67-14.41-11.7-15.23-7.15-.83-14.47-.18-21.98-.18v59.26Z"/>
      <path class="cls-1" d="m493.37,233.43c-1.74-11.99-3.36-23.42-5.16-34.83-.15-.96-1.55-2.43-2.42-2.47-5.91-.22-11.83-.11-17.96-.11-1.84,12.68-3.62,24.87-5.44,37.41h30.98Z"/>
      <path class="cls-1" d="m478.63,126.9c-.38,0-.77-.01-1.15-.02-2.96,21.22-5.92,42.44-8.91,63.91h18.82c-2.97-21.7-5.87-42.79-8.76-63.89Z"/>
      <path class="cls-1" d="m284.47,196.37c2.24,14.88,4.43,29.47,6.63,44.06l1.02.05c2.21-14.53,4.42-29.07,6.7-44.11h-14.35Z"/>
      <path class="cls-1" d="m326.85,594.45c.32.04.64.08.96.12,1.38-15.25,2.76-30.51,4.13-45.67h-9.53c1.51,15.48,2.98,30.52,4.44,45.55Z"/>
      <path class="cls-1" d="m332.56,143.25c-.33.04-.66.07-.98.11-2.4,15.76-4.8,31.53-7.28,47.79h8.26v-47.9Z"/>
      <path class="cls-1" d="m256.88,593.93c.32.01.65.02.97.04,1.42-15.02,2.84-30.04,4.28-45.21h-9.07c1.29,15.27,2.55,30.22,3.81,45.18Z"/>
      <path class="cls-1" d="m257.09,191.08c-2.61-16.33-5.12-31.99-7.62-47.64-.21.04-.42.07-.64.11v47.53h8.26Z"/>
      <path class="cls-1" d="m292.23,506.6c-.32-.01-.64-.02-.96-.03-1.22,12.19-2.44,24.38-3.67,36.73h8.49c-1.32-12.54-2.59-24.62-3.86-36.7Z"/>
    </g>
  </g>
</svg>